<svg width="15" height="21" viewBox="0 0 15 21" fill="none" xmlns="http://www.w3.org/2000/svg">
<path fill-rule="evenodd" clip-rule="evenodd" d="M11.2701 16.2173C11.5174 15.2686 11.0374 13.3182 11.0374 13.3182C11.0374 13.3182 10.6892 14.9071 10.1451 15.4944C9.68092 15.9953 9.11225 16.3427 8.29668 16.434C8.96349 16.0943 9.42206 15.3858 9.42206 14.5669C9.42206 13.4174 8.51844 12.4855 7.40378 12.4855C6.28912 12.4855 5.38546 13.4174 5.38546 14.5669C5.38546 14.8808 5.4529 15.1786 5.5736 15.4455C4.87641 14.8628 4.76679 13.9287 4.76679 13.9287C4.76679 13.9287 3.98828 17.3194 6.13339 18.9144C8.27846 20.5095 12.4806 19.1385 12.4806 19.1385C12.4806 19.1385 6.46709 23.5773 2.01101 18.7462C-1.82753 14.5845 1.00915 9.1056 1.00915 9.1056C1.00915 9.1056 0.886642 9.61386 0.886642 10.2039C0.886642 10.7939 1.19157 11.2428 1.19157 11.2428C1.19157 11.2428 2.10117 9.23143 2.80907 8.41346C3.47904 7.63933 4.31889 7.01146 5.0443 6.46915C5.60269 6.05169 6.09328 5.68493 6.38627 5.34118C8.00009 3.44813 7.01058 0 7.01058 0C7.01058 0 8.82978 1.68246 9.33765 3.85538C9.53126 4.68366 9.40669 5.62607 9.29535 6.46882C9.11456 7.83694 8.96845 8.94244 10.2745 8.8707C12.385 8.75475 10.551 5.34118 10.551 5.34118C10.551 5.34118 15.3386 7.98095 14.9809 12.5977C14.6232 17.2146 9.7479 18.2641 9.7479 18.2641C9.7479 18.2641 11.0227 17.1661 11.2701 16.2173Z" fill="#F66D6D"/>
</svg>
